<svg width="145" height="30" viewBox="0 0 804 109" fill="none" xmlns="http://www.w3.org/2000/svg">
<path d="M166.056 20.709C172.726 20.709 178.494 21.1954 183.362 22.1689C188.279 23.1426 192.466 24.5545 195.922 26.4043C199.428 28.2543 202.25 30.4942 204.393 33.123C206.583 35.7518 208.288 38.5263 209.504 41.4473C210.77 44.3194 211.622 47.7031 212.06 51.5977C212.547 55.4922 212.79 59.6058 212.79 63.9385L211.623 68.6123H128.667C128.667 75.0382 129.3 80.3201 130.566 84.458C131.831 88.5473 133.925 91.5419 136.847 93.4404C139.767 95.3388 143.612 96.5553 148.383 97.0908C153.155 97.5776 159.045 97.8213 166.056 97.8213C172.481 97.8213 177.788 97.6513 181.976 97.3105C186.21 96.9211 189.569 96.2147 192.053 95.1924C194.535 94.17 196.263 92.7582 197.237 90.957C198.259 89.1071 198.77 86.7216 198.77 83.8008H212.79C212.79 88.3282 211.987 92.1991 210.381 95.4121C208.823 98.5762 206.219 101.156 202.567 103.152C198.916 105.1 194.096 106.511 188.109 107.388C182.17 108.313 174.818 108.775 166.056 108.775C156.709 108.775 148.773 108.142 142.25 106.876C135.726 105.562 130.419 103.323 126.33 100.158C122.241 96.9939 119.272 92.7584 117.422 87.4521C115.572 82.1458 114.647 75.4759 114.647 67.4434C114.647 58.2425 115.572 50.648 117.422 44.6602C119.272 38.6236 122.241 33.8282 126.33 30.2744C130.419 26.7206 135.726 24.2381 142.25 22.8262C148.773 21.4144 156.709 20.709 166.056 20.709ZM539.936 20.709C549.283 20.709 557.218 21.3898 563.742 22.7529C570.265 24.0672 575.572 26.38 579.661 29.6904C583.75 33.0008 586.72 37.48 588.57 43.127C590.42 48.7741 591.345 55.9058 591.345 64.5225C591.345 73.139 590.42 80.2955 588.57 85.9912C586.72 91.6871 583.75 96.2152 579.661 99.5742C575.572 102.933 570.265 105.319 563.742 106.73C557.218 108.094 549.283 108.775 539.936 108.775C530.589 108.775 522.654 108.093 516.131 106.73C509.607 105.319 504.3 102.933 500.211 99.5742C496.122 96.2151 493.152 91.6872 491.303 85.9912C489.452 80.2954 488.527 73.139 488.527 64.5225C488.527 55.9058 489.452 48.7741 491.303 43.127C493.152 37.4799 496.122 33.0008 500.211 29.6904C504.3 26.38 509.607 24.0672 516.131 22.7529C522.654 21.3898 530.589 20.709 539.936 20.709ZM56.082 20.709C62.3134 20.709 67.6687 21.098 72.1475 21.877C76.6748 22.6559 80.4967 23.7995 83.6123 25.3086C86.7765 26.8177 89.3076 28.6924 91.2061 30.9316C93.1046 33.1709 94.5656 35.7756 95.5879 38.7451C96.6589 41.666 97.3643 44.9525 97.7051 48.6035C98.0459 52.2061 98.2168 56.1495 98.2168 60.4336L98.1436 107.168H84.123V60.4336C84.123 55.2246 83.734 50.8428 82.9551 47.2891C82.1762 43.6866 80.6179 40.7903 78.2812 38.5996C75.9446 36.409 72.6343 34.8263 68.3506 33.8525C64.0664 32.879 58.4185 32.3926 51.4082 32.3926C43.814 32.3926 37.5829 32.9525 32.7148 34.0723C27.8954 35.1919 24.098 36.7738 21.3232 38.8184C18.5484 40.8629 16.6246 43.3213 15.5537 46.1934C14.5314 49.0656 14.0205 52.2547 14.0205 55.7598V107.136H0V23.0449H14.0205V37.0654C15.0428 34.6802 16.5039 32.6353 18.4023 30.9316C20.3009 29.1792 22.4428 27.6946 24.8281 26.4775C27.2134 25.2606 29.7935 24.2868 32.5684 23.5566C35.3433 22.7777 38.1186 22.1932 40.8936 21.8037C43.6684 21.3657 46.3458 21.0738 48.9258 20.9277C51.5546 20.7817 53.94 20.709 56.082 20.709ZM258.139 23.0449H310.934V34.583H258.139V76.791C258.139 81.4644 258.478 85.0673 259.16 87.5986C259.89 90.13 261.035 91.9791 262.593 93.1475C264.151 94.3158 266.195 94.9976 268.727 95.1924C271.306 95.387 274.447 95.4844 278.147 95.4844C281.067 95.4844 283.672 95.4363 285.96 95.3389C288.297 95.2415 290.317 94.9487 292.021 94.4619C293.774 93.9265 295.258 93.1481 296.476 92.126C297.692 91.0549 298.666 89.5695 299.396 87.6709C300.175 85.7724 300.736 83.3867 301.076 80.5146C301.416 77.5938 301.587 74.0156 301.587 69.7803H313.271C313.271 76.9365 312.686 82.9246 311.519 87.7441C310.35 92.515 308.378 96.3367 305.604 99.209C302.877 102.081 299.275 104.126 294.796 105.343C290.317 106.56 284.792 107.168 278.22 107.168C271.843 107.168 266.487 106.682 262.155 105.708C257.822 104.734 254.316 103.079 251.639 100.742C248.962 98.4055 247.039 95.2899 245.87 91.3955C244.702 87.501 244.118 82.6327 244.118 76.791V34.583H226.811V23.0449H244.118V0.0429688H258.139V23.0449ZM369.353 96.6533L397.394 23.0449H411.414L439.164 96.6533L465.16 23.0449H481.517L448.803 107.168H430.108L404.404 38.2344L378.7 107.168H360.006L327.291 23.0449H343.648L369.353 96.6533ZM656.773 20.709C664.077 20.709 670.016 21.3662 674.592 22.6807C679.168 23.9463 682.721 25.8446 685.253 28.376C687.833 30.8588 689.561 33.9505 690.438 37.6504C691.362 41.3501 691.825 45.6102 691.825 50.4297H680.141C680.141 46.9246 679.874 44.0274 679.339 41.7393C678.852 39.4026 677.659 37.5526 675.761 36.1895C673.861 34.7777 671.038 33.804 667.289 33.2686C663.589 32.6844 658.525 32.3926 652.1 32.3926C645.82 32.3926 640.709 32.9525 636.766 34.0723C632.821 35.1433 629.731 36.6769 627.491 38.6729C625.252 40.6688 623.719 43.0542 622.892 45.8291C622.113 48.6038 621.723 51.6949 621.723 55.1025V107.168H607.702V23.0449H621.723V36.4092C622.21 34.9002 623.109 33.2445 624.424 31.4434C625.739 29.5934 627.734 27.8889 630.412 26.3311C633.089 24.7245 636.547 23.3865 640.781 22.3154C645.066 21.2444 650.396 20.709 656.773 20.709ZM539.936 32.3926C535.262 32.3926 531.076 32.4899 527.376 32.6846C523.724 32.8794 520.511 33.3421 517.737 34.0723C515.01 34.7538 512.673 35.8001 510.727 37.2119C508.779 38.5751 507.198 40.4497 505.98 42.835C504.813 45.2204 503.935 48.1903 503.352 51.7441C502.816 55.2491 502.548 59.5085 502.548 64.5225C502.548 69.196 502.718 73.2614 503.059 76.7178C503.4 80.1742 504.033 83.1442 504.958 85.627C505.931 88.1096 507.27 90.1297 508.974 91.6875C510.679 93.2453 512.917 94.4871 515.692 95.4121C518.468 96.337 521.826 96.9697 525.77 97.3105C529.761 97.6513 534.483 97.8213 539.936 97.8213C544.609 97.8213 548.772 97.724 552.424 97.5293C556.123 97.2858 559.337 96.775 562.062 95.9961C564.838 95.2172 567.198 94.1216 569.146 92.71C571.092 91.2495 572.65 89.2777 573.819 86.7949C575.036 84.3121 575.911 81.2694 576.447 77.667C577.032 74.0158 577.324 69.634 577.324 64.5225C577.324 59.5084 577.032 55.2491 576.447 51.7441C575.911 48.1904 575.036 45.2204 573.819 42.835C572.65 40.4496 571.092 38.5751 569.146 37.2119C567.198 35.8003 564.838 34.7538 562.062 34.0723C559.337 33.3421 556.123 32.8794 552.424 32.6846C548.772 32.4899 544.609 32.3926 539.936 32.3926ZM166.056 32.3926C161.382 32.3926 157.195 32.4899 153.495 32.6846C149.844 32.8794 146.631 33.3175 143.856 33.999C141.13 34.6319 138.793 35.5811 136.847 36.8467C134.899 38.0638 133.317 39.5246 132.1 41.2285C130.932 42.8837 130.054 45.2445 129.471 48.3115C128.935 51.3296 128.667 54.9808 128.667 59.2646H198.77C198.77 53.569 198.162 49.1143 196.944 45.9014C195.728 42.6398 193.804 39.9623 191.175 37.8691C188.546 35.7759 185.163 34.3394 181.025 33.5605C176.888 32.7817 171.898 32.3926 166.056 32.3926Z" fill="#002147"/>
<path d="M723.531 40.8054C719.71 36.9839 713.951 28.3902 713.951 28.3902H700.603C706.323 33.9022 713.341 42.0792 721.621 50.3591C729.901 58.639 733.722 60.5497 747.734 60.5497C761.746 60.5497 766.258 53.4921 770.663 49.0853C775.068 44.6784 796.14 21.698 796.14 21.698H771.937C762.256 38.003 757.925 47.7599 745.823 50.3591C733.722 52.9583 727.353 44.6269 723.531 40.8054Z" fill="#60ABFA" stroke="#60ABFA" stroke-width="1.88305"/>
<path d="M773.216 88.5752C777.037 92.3967 782.796 100.99 782.796 100.99H796.145C790.424 95.4784 783.406 87.3014 775.126 79.0215C766.847 70.7416 763.025 68.8309 749.013 68.8309C735.001 68.8309 730.489 75.8885 726.084 80.2953C721.679 84.7022 700.607 107.683 700.607 107.683H724.81C734.491 91.3776 738.822 81.6207 750.924 79.0215C763.025 76.4223 769.394 84.7537 773.216 88.5752Z" fill="#60ABFA" stroke="#60ABFA" stroke-width="1.88305"/>
</svg>
