<svg width="145" height="30" viewBox="0 0 112 16" fill="none" xmlns="http://www.w3.org/2000/svg">
  <path d="M23.1318 2.88442C24.061 2.88442 24.8649 2.95193 25.543 3.08755C26.2279 3.22319 26.8116 3.4197 27.293 3.67739C27.7813 3.93509 28.1742 4.24773 28.4727 4.61391C28.7777 4.98 29.0152 5.36632 29.1846 5.77309C29.361 6.17318 29.4801 6.64465 29.541 7.18716C29.6089 7.72954 29.6426 8.30253 29.6426 8.90591L29.4795 9.55727H17.9238C17.9238 10.4525 18.0121 11.1888 18.1885 11.7653C18.3647 12.3347 18.6566 12.7518 19.0635 13.0163C19.4701 13.2806 20.0057 13.4504 20.6699 13.525C21.3346 13.5929 22.1554 13.6266 23.1318 13.6266C24.0269 13.6266 24.7663 13.6028 25.3496 13.5553C25.9395 13.5011 26.4079 13.4028 26.7539 13.2604C27.0995 13.118 27.3398 12.9212 27.4756 12.6706C27.6179 12.4129 27.6894 12.0803 27.6895 11.6735H29.6426C29.6426 12.3041 29.5304 12.8431 29.3066 13.2907C29.0897 13.7313 28.7272 14.0908 28.2188 14.3688C27.7101 14.6401 27.0381 14.8366 26.2041 14.9586C25.3767 15.0875 24.3524 15.152 23.1318 15.152C21.83 15.152 20.725 15.0636 19.8164 14.8874C18.9076 14.7043 18.1682 14.3925 17.5986 13.9518C17.0291 13.5111 16.6151 12.9213 16.3574 12.1823C16.0997 11.4431 15.9707 10.5132 15.9707 9.39419C15.9707 8.11287 16.0998 7.05532 16.3574 6.22134C16.6151 5.38041 17.029 4.71152 17.5986 4.21645C18.1682 3.72159 18.9078 3.37598 19.8164 3.17934C20.7249 2.98275 21.8301 2.88443 23.1318 2.88442ZM75.2148 2.88442C76.5169 2.88442 77.6224 2.97968 78.5312 3.16958C79.4399 3.35267 80.1794 3.67426 80.749 4.1354C81.3186 4.59653 81.7324 5.22086 81.9902 6.00747C82.2478 6.7941 82.376 7.78774 82.376 8.98794C82.376 10.188 82.2478 11.1848 81.9902 11.9782C81.7324 12.7716 81.3186 13.4028 80.749 13.8708C80.1794 14.3387 79.4399 14.6712 78.5312 14.8678C77.6224 15.0577 76.5169 15.152 75.2148 15.152C73.9128 15.152 72.8071 15.0577 71.8984 14.8678C70.9897 14.6711 70.2502 14.3386 69.6807 13.8708C69.1111 13.4028 68.698 12.7716 68.4404 11.9782C68.1827 11.1848 68.0537 10.1881 68.0537 8.98794C68.0537 7.78765 68.1826 6.79413 68.4404 6.00747C68.698 5.22091 69.1112 4.59652 69.6807 4.1354C70.2502 3.67432 70.9898 3.35268 71.8984 3.16958C72.8071 2.97969 73.9128 2.88443 75.2148 2.88442ZM7.8125 2.88442C8.68052 2.88443 9.4269 2.93901 10.0508 3.04751C10.6812 3.15601 11.2136 3.31488 11.6475 3.52505C12.0881 3.73523 12.4406 3.99641 12.7051 4.30825C12.9696 4.62019 13.173 4.98344 13.3154 5.39712C13.4646 5.80397 13.5629 6.26162 13.6104 6.77016C13.6578 7.27188 13.6816 7.82103 13.6816 8.41763L13.6719 14.9284H11.7188V8.41763C11.7187 7.6924 11.6641 7.08241 11.5557 6.58755C11.4472 6.08582 11.2307 5.68175 10.9053 5.37661C10.5798 5.07146 10.1182 4.85112 9.52148 4.71548C8.92468 4.57985 8.13769 4.51235 7.16113 4.51235C6.1035 4.51236 5.23566 4.58983 4.55762 4.74575C3.88642 4.90168 3.35722 5.12217 2.9707 5.40688C2.58424 5.69163 2.3162 6.03426 2.16699 6.43423C2.02458 6.83434 1.95312 7.27896 1.95312 7.76723V14.9235H0V3.20962H1.95312V5.16274C2.09553 4.83053 2.29904 4.54555 2.56348 4.30825C2.82794 4.06415 3.12673 3.85765 3.45898 3.68813C3.79122 3.51865 4.15063 3.3826 4.53711 3.28091C4.92351 3.17246 5.30989 3.09101 5.69629 3.03677C6.08282 2.97575 6.45603 2.93504 6.81543 2.9147C7.18164 2.89435 7.5141 2.88442 7.8125 2.88442ZM35.96 3.20962H43.3145V4.81704H35.96V10.6969C35.96 11.3475 36.0067 11.8492 36.1016 12.2018C36.2033 12.5544 36.3631 12.8125 36.5801 12.9752C36.7971 13.138 37.082 13.2333 37.4346 13.2604C37.7939 13.2875 38.2316 13.3004 38.7471 13.3004C39.1536 13.3004 39.5163 13.2945 39.835 13.2809C40.1605 13.2673 40.4424 13.2266 40.6797 13.1588C40.9239 13.0842 41.1302 12.975 41.2998 12.8327C41.4692 12.6835 41.6053 12.477 41.707 12.2125C41.8155 11.9481 41.894 11.6156 41.9414 11.2155C41.9888 10.8086 42.0117 10.3102 42.0117 9.72036H43.6396C43.6396 10.7171 43.5581 11.551 43.3955 12.2223C43.2327 12.8869 42.9577 13.4199 42.5713 13.82C42.1915 14.2199 41.6901 14.505 41.0664 14.6745C40.4425 14.844 39.6725 14.9284 38.7568 14.9284C37.8687 14.9284 37.1229 14.8608 36.5195 14.7252C35.9159 14.5896 35.4266 14.3584 35.0537 14.0329C34.6811 13.7074 34.4137 13.2734 34.251 12.7311C34.0883 12.1886 34.0068 11.5106 34.0068 10.6969V4.81704H31.5957V3.20962H34.0068V0.00551605H35.96V3.20962ZM51.4521 13.4635L55.3584 3.20962H57.3115L61.1768 13.4635L64.7988 3.20962H67.0771L62.5195 14.9284H59.916L56.335 5.32583L52.7539 14.9284H50.1504L45.5928 3.20962H47.8711L51.4521 13.4635ZM91.4912 2.88442C92.5082 2.88444 93.3353 2.97581 93.9727 3.15884C94.6102 3.33515 95.1052 3.60013 95.458 3.95278C95.8173 4.29863 96.0586 4.72941 96.1807 5.24477C96.3094 5.75994 96.374 6.35308 96.374 7.02407H94.7461C94.7461 6.53601 94.7082 6.13276 94.6338 5.81411C94.5659 5.48859 94.4001 5.23057 94.1357 5.04067C93.8712 4.8441 93.478 4.70901 92.9561 4.63442C92.4406 4.55304 91.735 4.51235 90.8398 4.51235C89.9652 4.51235 89.2533 4.58984 88.7041 4.74575C88.1549 4.89489 87.7241 5.1085 87.4121 5.38638C87.1002 5.66441 86.8858 5.99691 86.7705 6.38345C86.662 6.76996 86.6084 7.20076 86.6084 7.67544V14.9284H84.6553V3.20962H86.6084V5.07095C86.6763 4.86086 86.8014 4.63026 86.9844 4.37954C87.1675 4.1219 87.4454 3.88459 87.8184 3.66763C88.1912 3.44387 88.6729 3.25724 89.2627 3.10806C89.8596 2.95886 90.6029 2.88442 91.4912 2.88442ZM75.2148 4.51235C74.5639 4.51235 73.9803 4.52527 73.4648 4.55239C72.9566 4.57953 72.5093 4.64413 72.123 4.74575C71.7433 4.84066 71.4176 4.98669 71.1465 5.18325C70.8751 5.37314 70.654 5.63416 70.4844 5.96645C70.3217 6.29875 70.1994 6.71264 70.1182 7.20766C70.0435 7.69592 70.0068 8.28948 70.0068 8.98794C70.0068 9.63875 70.0308 10.2048 70.0781 10.6862C70.1257 11.1677 70.214 11.5815 70.3428 11.9274C70.4783 12.2732 70.6641 12.5551 70.9014 12.7721C71.1389 12.9891 71.4513 13.1618 71.8379 13.2907C72.2244 13.4195 72.6921 13.5078 73.2412 13.5553C73.7973 13.6028 74.4553 13.6266 75.2148 13.6266C75.8657 13.6266 76.4455 13.6127 76.9541 13.5856C77.4693 13.5517 77.9172 13.4802 78.2969 13.3717C78.6835 13.2632 79.0128 13.1113 79.2842 12.9147C79.5553 12.7113 79.7717 12.4362 79.9346 12.0905C80.104 11.7447 80.2261 11.3207 80.3008 10.819C80.3822 10.3104 80.4228 9.69993 80.4229 8.98794C80.4229 8.28942 80.3822 7.69594 80.3008 7.20766C80.2261 6.7126 80.104 6.29876 79.9346 5.96645C79.7718 5.63433 79.5552 5.37309 79.2842 5.18325C79.0128 4.98659 78.6835 4.8407 78.2969 4.74575C77.9173 4.64408 77.4692 4.57952 76.9541 4.55239C76.4455 4.52529 75.8657 4.51235 75.2148 4.51235ZM23.1318 4.51235C22.4811 4.51236 21.8981 4.52529 21.3828 4.55239C20.8742 4.57952 20.4264 4.64107 20.04 4.73598C19.6603 4.82412 19.3346 4.95621 19.0635 5.13247C18.7922 5.30198 18.5719 5.50553 18.4023 5.74282C18.2397 5.97332 18.1174 6.30209 18.0361 6.72915C17.9615 7.1496 17.9238 7.65873 17.9238 8.25552H27.6895C27.6895 7.46218 27.6041 6.84176 27.4346 6.39419C27.2652 5.93998 26.9979 5.5666 26.6318 5.27505C26.2657 4.98348 25.794 4.78298 25.2178 4.67446C24.6414 4.56596 23.9457 4.51235 23.1318 4.51235Z" fill="white"/>
  <path d="M100.791 5.68441C100.258 5.15206 99.4559 3.95493 99.4559 3.95493H97.5964C98.3934 4.72276 99.3709 5.86186 100.524 7.01527C101.678 8.16869 102.21 8.43486 104.162 8.43486C106.114 8.43486 106.742 7.45171 107.356 6.83782C107.97 6.22393 110.905 3.02268 110.905 3.02268H107.534C106.185 5.29402 105.582 6.6532 103.896 7.01527C102.21 7.37735 101.323 6.21675 100.791 5.68441Z" fill="#60ABFA" stroke="#60ABFA" stroke-width="0.262315"/>
  <path d="M107.711 12.3385C108.244 12.8708 109.046 14.068 109.046 14.068H110.906C110.109 13.3001 109.131 12.161 107.978 11.0076C106.824 9.85422 106.292 9.58804 104.34 9.58804C102.388 9.58804 101.759 10.5712 101.146 11.1851C100.532 11.799 97.5969 15.0002 97.5969 15.0002H100.968C102.317 12.7289 102.92 11.3697 104.606 11.0076C106.292 10.6456 107.179 11.8062 107.711 12.3385Z" fill="#60ABFA" stroke="#60ABFA" stroke-width="0.262315"/>
</svg>

