<svg width="1200" height="900" viewBox="0 0 1200 900" fill="none" xmlns="http://www.w3.org/2000/svg">
  <defs>
    <linearGradient id="bg" x1="0" y1="0" x2="1" y2="1">
      <stop offset="0%" stop-color="#f1f5f9" />
      <stop offset="100%" stop-color="#e2e8f0" />
    </linearGradient>
    <linearGradient id="route" x1="0" y1="0" x2="1" y2="0">
      <stop offset="0%" stop-color="#0b6dbf" stop-opacity="0.3" />
      <stop offset="100%" stop-color="#0b6dbf" stop-opacity="0.7" />
    </linearGradient>
  </defs>
  <rect width="1200" height="900" fill="url(#bg)" />
  <g opacity="0.35" stroke="#0b2a4a" stroke-width="2">
    <path d="M80 160 L1120 140" />
    <path d="M120 320 L1080 300" />
    <path d="M90 520 L1110 500" />
    <path d="M140 700 L1060 680" />
    <path d="M200 80 L260 820" />
    <path d="M480 60 L520 840" />
    <path d="M760 70 L800 830" />
    <path d="M980 90 L1040 810" />
  </g>
  <path d="M220 220 C380 260 520 240 680 300 C820 360 900 480 980 620" stroke="url(#route)" stroke-width="10" stroke-linecap="round" stroke-dasharray="14 10" />
  <circle cx="220" cy="220" r="16" fill="#0b6dbf" fill-opacity="0.7" />
  <circle cx="980" cy="620" r="16" fill="#0b6dbf" fill-opacity="0.9" />
</svg>
